<?xml version="1.0" encoding="utf-8"?>
<!-- Generator: Adobe Illustrator 18.1.0, SVG Export Plug-In . SVG Version: 6.00 Build 0)  -->
<svg version="1.1" id="Layer_1" xmlns="http://www.w3.org/2000/svg" xmlns:xlink="http://www.w3.org/1999/xlink" x="0px" y="0px"
	 viewBox="0 0 500 500" enable-background="new 0 0 500 500" xml:space="preserve">
<path d="M431.4,39.7C366.9,35,317.5,58.5,286,152.1c0,0,111.1-40,54.2,80c0,0-11.8,25-37.2,56.5c-25.4,31.5-48.5,42.4-70.2-84.7
	S206.4,28.6,140.5,45.2C101.3,55.1,0,152.4,0,152.4l22,29.2l35.6-21c0,0,18.3-13.8,37.4,33.8s52.1,182.7,54,182.7
	c1.8,0,36.7,200.6,227.8-19.3C567.9,138.1,495.8,44.3,431.4,39.7z"/>
</svg>
